<?xml version="1.0" encoding="UTF-8"?>
<svg version="1.1" xmlns="http://www.w3.org/2000/svg" width="512" height="512">
<path d="M0 0 C8.63529996 7.44737509 15.24152328 17.45550406 16.43579102 29.05639648 C17.41282998 48.35862062 12.00105363 60.56465248 -0.78515625 74.91015625 C-0.04072266 75.49410156 -0.04072266 75.49410156 0.71875 76.08984375 C9.48565513 83.30964797 16.07178536 92.03151665 17.55078125 103.51953125 C17.72480469 104.82664063 17.72480469 104.82664063 17.90234375 106.16015625 C17.96808594 106.9490625 18.03382812 107.73796875 18.1015625 108.55078125 C19.99363776 112.56065304 23.26134633 114.2829382 27.21484375 115.91015625 C32.53320039 116.86288092 37.86058355 117.11844116 43.24609375 117.38671875 C44.80747497 117.48218234 46.36871436 117.57999144 47.92980957 117.68002319 C52.02250788 117.93764291 56.11618261 118.17076507 60.21075439 118.39642334 C66.76282523 118.75942471 73.31307318 119.15015058 79.8624115 119.5593071 C82.13732368 119.69642977 84.41268123 119.81709523 86.68859863 119.93618774 C102.37454441 120.83256444 102.37454441 120.83256444 108.45703125 125.70703125 C111.99277884 129.9363944 114.42749612 133.30030439 115.21484375 138.91015625 C114.88484375 141.88015625 114.55484375 144.85015625 114.21484375 147.91015625 C135.33484375 147.91015625 156.45484375 147.91015625 178.21484375 147.91015625 C177.88484375 144.94015625 177.55484375 141.97015625 177.21484375 138.91015625 C177.91165605 132.37386058 181.07922295 128.46178818 185.984375 124.3203125 C190.8012134 121.27499085 195.68130089 120.62087483 201.28662109 120.3034668 C201.96715042 120.26243835 202.64767975 120.22140991 203.34883118 120.17913818 C204.81689443 120.09124823 206.28516861 120.00682534 207.75361252 119.92554283 C210.08411813 119.79500775 212.41354003 119.65191406 214.74307251 119.50508118 C221.36311841 119.08896558 227.98381497 118.68660383 234.60644531 118.3137207 C238.66714837 118.08418788 242.72600835 117.8327219 246.78453445 117.56757545 C248.32368613 117.47127684 249.86337361 117.38315553 251.40348434 117.30365562 C263.32377028 116.92308873 263.32377028 116.92308873 273.21484375 110.91015625 C274.62199731 107.73503358 274.62199731 107.73503358 274.90234375 104.22265625 C277.1295718 90.95612396 283.84051534 83.19492101 293.21484375 73.91015625 C292.70695312 73.44867188 292.1990625 72.9871875 291.67578125 72.51171875 C281.7003454 63.05933946 276.2991298 52.80264678 275.81225586 39.04052734 C275.61197623 24.66801277 279.0893838 13.5592945 289.09375 2.91015625 C298.36373707 -5.77928618 309.43181919 -9.66786887 322 -9.3984375 C334.0404218 -8.24267405 343.80710979 -3.02791538 352.02734375 5.72265625 C361.78698504 17.59995556 363.4586151 31.08033012 362.21484375 45.91015625 C360.27681101 56.47069392 354.35461245 65.93321165 346.21484375 72.91015625 C345.55484375 72.91015625 344.89484375 72.91015625 344.21484375 72.91015625 C344.87484375 73.54953125 345.53484375 74.18890625 346.21484375 74.84765625 C347.2195892 75.86381926 348.21884093 76.88542258 349.21484375 77.91015625 C349.85421875 78.565 350.49359375 79.21984375 351.15234375 79.89453125 C362.48676688 92.00175596 364.5226052 104.10722457 364.48950195 120.26342773 C364.49716835 122.21421234 364.49716835 122.21421234 364.50498962 124.20440674 C364.51828081 127.74372557 364.51896951 131.28293698 364.51642632 134.82227588 C364.51535004 137.78923131 364.52025659 140.75616559 364.52503175 143.72311646 C364.53609238 150.72826915 364.53658356 157.73336821 364.53051758 164.73852539 C364.52447787 171.93903137 364.53679657 179.13934194 364.55808765 186.3398146 C364.57576043 192.54736804 364.58169616 198.75485958 364.5784499 204.96243721 C364.57664621 208.65878854 364.57918125 212.35500038 364.59316444 216.05132866 C364.6081902 220.17684298 364.59872328 224.3019647 364.5871582 228.42749023 C364.59480194 229.63458145 364.60244568 230.84167267 364.61032104 232.08534241 C364.52526825 245.86706962 360.91992327 257.02263107 351.46484375 267.22265625 C342.38033866 275.80439293 331.35514092 278.1648014 319.24609375 278.32421875 C318.32517944 278.3435849 317.40426514 278.36295105 316.45544434 278.38290405 C313.54200216 278.44222124 310.62851944 278.48889213 307.71484375 278.53515625 C305.72784827 278.57338016 303.74086859 278.6124344 301.75390625 278.65234375 C296.90768178 278.7478829 292.06137987 278.83208868 287.21484375 278.91015625 C296.22074562 279.00301959 305.22648154 279.07400365 314.23275852 279.11740494 C318.41519194 279.13824017 322.59729671 279.16648269 326.77954102 279.21191406 C330.81904752 279.25551805 334.8582388 279.27932391 338.89796257 279.28966522 C340.43569841 279.29703062 341.97341787 279.31141359 343.51101875 279.33307648 C354.63351615 279.7701517 354.63351615 279.7701517 364.21484375 274.91015625 C366.75983862 271.28950012 367.7361662 268.2920943 368.37817383 263.93457031 C368.64940567 262.14956871 368.64940567 262.14956871 368.92611694 260.32850647 C369.1103421 259.04060715 369.29456726 257.75270782 369.484375 256.42578125 C369.68709876 255.06349397 369.89078366 253.70134941 370.09536743 252.33934021 C370.52763603 249.44722177 370.95296085 246.55420047 371.37277222 243.6602478 C372.02669053 239.15301334 372.6971028 234.64832491 373.36938477 230.14379883 C375.33106693 216.9678185 377.24286359 203.78521846 379.09765625 190.59375 C379.36863937 188.68260381 379.63971261 186.77147039 379.91088867 184.86035156 C380.39651856 181.43567475 380.86616606 178.00935575 381.32543945 174.58105469 C381.5368262 173.06959902 381.74862938 171.55820152 381.9609375 170.046875 C382.21895142 168.13974731 382.21895142 168.13974731 382.48217773 166.1940918 C383.29792281 162.53778157 384.53309201 159.59190799 387.21484375 156.91015625 C394.59136884 156.43425141 394.59136884 156.43425141 396.81634521 158.13259888 C400.1484781 162.3678964 398.50810295 169.22050908 397.9596405 174.25077057 C397.12365749 181.05374982 396.097195 187.82859511 395.07421875 194.60546875 C394.74708581 196.80632515 394.42037184 199.00724386 394.09405518 201.20822144 C393.41058217 205.80329686 392.72046685 210.39731475 392.02587891 214.99072266 C391.13961382 220.85687107 390.27249424 226.72566756 389.41064072 232.59544563 C388.7414858 237.13509744 388.06091606 241.67298366 387.37708282 246.2104454 C387.05278087 248.37307314 386.73225757 250.53627123 386.41570282 252.70004654 C385.97085946 255.73048532 385.51031811 258.75815234 385.04589844 261.78564453 C384.92001846 262.66591309 384.79413849 263.54618164 384.66444397 264.453125 C383.16816854 273.97100866 380.32717522 283.21867376 372.43359375 289.27734375 C368.92692482 291.62903839 365.57175184 293.16754706 361.56152344 294.48364258 C360.74834656 294.75147049 359.93516968 295.0192984 359.09735107 295.29524231 C358.47612366 295.49816391 357.85489624 295.70108551 357.21484375 295.91015625 C357.51551758 297.01436668 357.51551758 297.01436668 357.82226562 298.1408844 C359.71473909 305.09708553 361.59869849 312.05551106 363.4732666 319.01655674 C364.43717167 322.59475476 365.40428195 326.17201988 366.37890625 329.74731445 C367.32030213 333.20119024 368.25303075 336.65730236 369.17993164 340.11509514 C369.5340958 341.4303309 369.89131394 342.74474841 370.25170898 344.05829048 C370.75804826 345.90585162 371.25228952 347.75671518 371.74609375 349.60766602 C372.03033203 350.65801529 372.31457031 351.70836456 372.60742188 352.7905426 C373.45147429 357.12544977 373.91439965 361.20498874 372.21484375 365.34765625 C369.51073313 367.46024267 367.503231 367.30955752 364.15234375 367.24609375 C362.21484375 366.91015625 362.21484375 366.91015625 359.21484375 364.91015625 C358.34265752 362.55497116 357.64687118 360.31459121 357.015625 357.89453125 C356.72118248 356.82105438 356.72118248 356.82105438 356.42079163 355.72589111 C355.77855364 353.37349806 355.15272665 351.01708104 354.52734375 348.66015625 C354.08829638 347.03621636 353.64834708 345.41252006 353.20751953 343.7890625 C352.30737 340.4659263 351.41428778 337.14100744 350.52685547 333.81445312 C349.48658862 329.91736125 348.43149103 326.024569 347.36766052 322.1338501 C346.61402114 319.37642145 345.86526102 316.6176869 345.11801147 313.85852051 C344.59793085 311.93998886 344.0749888 310.02223364 343.55200195 308.10449219 C343.24222412 306.94723633 342.93244629 305.78998047 342.61328125 304.59765625 C342.34177246 303.59089844 342.07026367 302.58414062 341.79052734 301.546875 C341.21484375 298.91015625 341.21484375 298.91015625 341.21484375 294.91015625 C332.30484375 294.91015625 323.39484375 294.91015625 314.21484375 294.91015625 C313.55484375 298.21015625 312.89484375 301.51015625 312.21484375 304.91015625 C311.71842546 306.98116013 311.20243948 309.04767011 310.65844727 311.10668945 C310.36797012 312.21095779 310.07749298 313.31522614 309.7782135 314.45295715 C309.46984055 315.61059067 309.16146759 316.76822418 308.84375 317.9609375 C308.52075424 319.17790817 308.19775848 320.39487885 307.86497498 321.64872742 C307.18504072 324.20484817 306.5036394 326.76052835 305.82006836 329.31567383 C304.94745871 332.57952826 304.0849966 335.84597433 303.22488499 339.11314106 C302.39638849 342.25174255 301.55684744 345.38738851 300.71875 348.5234375 C300.41240128 349.69119217 300.10605255 350.85894684 299.79042053 352.06208801 C299.49679123 353.15059555 299.20316193 354.23910309 298.90063477 355.3605957 C298.64685562 356.31416458 298.39307648 357.26773346 298.13160706 358.25019836 C297.0319082 361.4409376 295.63131716 364.49368284 293.21484375 366.91015625 C285.97674851 367.37713014 285.97674851 367.37713014 283.27734375 365.72265625 C281.32991483 362.40057162 281.08513376 359.65881824 281.73997498 355.87919617 C282.04419876 354.7533461 282.34842255 353.62749603 282.66186523 352.4675293 C282.91036224 351.53009132 282.91036224 351.53009132 283.16387939 350.57371521 C283.71096138 348.52019136 284.27330731 346.47118809 284.8359375 344.421875 C285.2194605 342.99438014 285.60202047 341.56662623 285.98365784 340.1386261 C286.9884159 336.38939711 288.00618871 332.64382264 289.0267334 328.89886475 C290.06673767 325.07337392 291.09436539 321.24456352 292.12304688 317.41601562 C294.14156314 309.91076322 296.17384341 302.40932932 298.21484375 294.91015625 C297.11785156 294.9565625 296.02085937 295.00296875 294.890625 295.05078125 C293.43622525 295.08831415 291.98179592 295.12471268 290.52734375 295.16015625 C289.80611328 295.19367188 289.08488281 295.2271875 288.34179688 295.26171875 C284.33289857 295.33494064 282.64314697 295.19606112 279.1953125 292.89453125 C278.21498047 291.91226563 278.21498047 291.91226563 277.21484375 290.91015625 C276.7772876 292.11736328 276.33973145 293.32457031 275.88891602 294.56835938 C275.26972419 296.27605261 274.65049938 297.98373389 274.03125 299.69140625 C273.5349131 301.06042839 273.5349131 301.06042839 273.02854919 302.45710754 C271.20883248 307.47369059 269.38469918 312.48860818 267.55273438 317.50073242 C266.8163426 319.51609002 266.08001407 321.53147074 265.34375 323.546875 C264.79963974 325.03600655 264.79963974 325.03600655 264.24453735 326.55522156 C262.26034591 331.99852671 260.31775746 337.4523292 258.4296875 342.9296875 C257.85142212 344.57130859 257.85142212 344.57130859 257.26147461 346.24609375 C256.59036741 348.15468692 255.93714404 350.06971877 255.30688477 351.9921875 C252.87769551 358.78998349 248.75698735 363.63908445 242.21484375 366.91015625 C239.70949345 367.01433353 237.23154483 367.05795401 234.72564697 367.05732727 C233.94412946 367.06100396 233.16261196 367.06468065 232.3574121 367.06846875 C229.72427079 367.07953013 227.09116891 367.08335358 224.45800781 367.0871582 C222.57584507 367.09342101 220.69368357 367.10006764 218.81152344 367.10707092 C213.68743979 367.12449779 208.56336548 367.1350373 203.43925953 367.14327645 C200.23942972 367.14842309 197.03960283 367.15449897 193.83977509 367.16078758 C183.83274392 367.17984446 173.82572016 367.19407448 163.81867433 367.20239955 C152.25896434 367.21217447 140.69944571 367.23849861 129.13980317 367.27890044 C120.21065425 367.3090398 111.28156025 367.32386636 102.35236144 367.32718056 C97.01672495 367.32953357 91.68129278 367.33852647 86.34571075 367.36364174 C81.32570075 367.38688924 76.30603006 367.39116904 71.28598022 367.38088036 C69.44372175 367.38038407 67.60144676 367.38673165 65.7592392 367.4004364 C63.24307665 367.41810707 60.72813817 367.4110735 58.2119751 367.39790344 C57.48375431 367.40887269 56.75553353 367.41984193 56.00524545 367.43114358 C49.63722916 367.35072965 46.21484496 364.75891953 41.68041992 360.56738281 C37.60160756 355.35210863 35.90375972 348.58173138 33.765625 342.39453125 C33.26317074 340.97255132 32.75942131 339.55102843 32.25444031 338.12994385 C30.93417164 334.40597184 29.62816967 330.67717104 28.32617188 326.94677734 C26.23519557 320.96142158 24.12556577 314.98266197 22.01009178 309.00592804 C21.27440384 306.91942908 20.54672264 304.83026284 19.81990051 302.74066162 C19.37146999 301.46601928 18.92280814 300.19145828 18.47387695 298.91699219 C18.08480667 297.80257751 17.69573639 296.68816284 17.2948761 295.53997803 C16.37080492 292.80913975 16.37080492 292.80913975 14.21484375 290.91015625 C13.725 291.565 13.23515625 292.21984375 12.73046875 292.89453125 C9.26448624 295.67162282 6.19726564 295.35457846 1.96484375 295.16015625 C1.21976562 295.14210938 0.4746875 295.1240625 -0.29296875 295.10546875 C-2.12425326 295.05851274 -3.95487274 294.98677277 -5.78515625 294.91015625 C-5.56773773 295.69862946 -5.35031921 296.48710266 -5.12631226 297.29946899 C-3.07798568 304.73946096 -1.04594959 312.1836218 0.96804237 319.63297462 C2.00397262 323.46241232 3.04606585 327.28994359 4.10253906 331.11376953 C5.12232096 334.80569178 6.12552472 338.50175888 7.11750412 342.20124435 C7.49838474 343.61019505 7.88516091 345.01756596 8.27797318 346.42323685 C8.82823937 348.39626878 9.35705456 350.37393657 9.88134766 352.35400391 C10.18779205 353.47763336 10.49423645 354.60126282 10.80996704 355.75894165 C11.28244014 359.43626883 10.71215669 361.54557931 9.21484375 364.91015625 C6.6214847 367.5035153 4.72737343 367.18742188 1.1875 367.2734375 C-1.41798359 366.79361577 -2.11023239 365.94938606 -3.78515625 363.91015625 C-4.69519043 361.53540039 -4.69519043 361.53540039 -5.45507812 358.6953125 C-5.74547974 357.62990234 -6.03588135 356.56449219 -6.33508301 355.46679688 C-6.63829468 354.31373047 -6.94150635 353.16066406 -7.25390625 351.97265625 C-7.57548706 350.78220703 -7.89706787 349.59175781 -8.22839355 348.36523438 C-9.08280046 345.19518882 -9.92838347 342.02296192 -10.76971436 338.84942627 C-11.61794145 335.65810367 -12.47751745 332.46984328 -13.3359375 329.28125 C-14.88487186 323.52194329 -16.42486222 317.76033734 -17.95532227 311.99609375 C-18.51496283 309.91493554 -19.08603286 307.83682158 -19.66772461 305.76171875 C-19.94302002 304.77945312 -20.21831543 303.7971875 -20.50195312 302.78515625 C-20.74909058 301.91632813 -20.99622803 301.0475 -21.25085449 300.15234375 C-21.78515625 297.91015625 -21.78515625 297.91015625 -21.78515625 294.91015625 C-30.69515625 294.91015625 -39.60515625 294.91015625 -48.78515625 294.91015625 C-49.11515625 297.55015625 -49.44515625 300.19015625 -49.78515625 302.91015625 C-50.25700238 305.00770268 -50.77328779 307.0957985 -51.33569336 309.17089844 C-51.80639503 310.92246246 -51.80639503 310.92246246 -52.28660583 312.70941162 C-52.62515091 313.9461261 -52.96369598 315.18284058 -53.3125 316.45703125 C-53.66535625 317.75871382 -54.0178535 319.06049376 -54.37001038 320.36236572 C-55.10543347 323.07635463 -55.84462818 325.78927832 -56.58666992 328.50146484 C-57.53592053 331.97191038 -58.47644473 335.44464912 -59.4142828 338.91819382 C-60.13945105 341.6008126 -60.86878825 344.28228389 -61.59942818 346.96341705 C-62.11667103 348.86392802 -62.63074179 350.76530139 -63.14476013 352.66668701 C-63.62019005 354.39933807 -63.62019005 354.39933807 -64.10522461 356.16699219 C-64.38200546 357.18210876 -64.65878632 358.19722534 -64.94395447 359.24310303 C-65.70423307 361.65358709 -66.48801315 363.74374273 -67.78515625 365.91015625 C-70.98194916 367.5085527 -74.31528041 367.40686649 -77.78515625 366.91015625 C-79.78515625 365.34765625 -79.78515625 365.34765625 -80.78515625 362.91015625 C-81.0093294 358.17607247 -80.55133908 354.17112872 -79.31640625 349.60766602 C-78.99607422 348.40694962 -78.67574219 347.20623322 -78.34570312 345.96913147 C-77.99237597 344.67989015 -77.6388559 343.39070168 -77.28515625 342.1015625 C-76.92566873 340.76655771 -76.56695679 339.43134386 -76.20898438 338.09593201 C-75.26976025 334.60042786 -74.32009884 331.10784444 -73.36816406 327.61578369 C-72.3966199 324.0444028 -71.43507256 320.47033364 -70.47265625 316.89648438 C-68.58654345 309.8983872 -66.6893855 302.90334823 -64.78515625 295.91015625 C-66.13299194 295.40681763 -66.13299194 295.40681763 -67.50805664 294.89331055 C-68.68360107 294.44898682 -69.85914551 294.00466309 -71.0703125 293.546875 C-72.23699463 293.10819092 -73.40367676 292.66950684 -74.60571289 292.2175293 C-82.29716392 289.05483865 -86.44836699 283.4047767 -89.78515625 275.91015625 C-90.36074019 273.56852142 -90.84665989 271.2038925 -91.26489258 268.82910156 C-91.38760182 268.13850773 -91.51031107 267.44791389 -91.63673878 266.73639297 C-93.21760091 257.68890819 -94.57008665 248.60344984 -95.921875 239.51953125 C-96.20903894 237.59816315 -96.49621467 235.67679681 -96.78340149 233.75543213 C-97.37982248 229.75884713 -97.97349964 225.76186474 -98.56567383 221.76464844 C-99.32085412 216.67121139 -100.08697246 211.57948275 -100.8556242 206.48806381 C-101.45089576 202.53214556 -102.03829717 198.57508685 -102.62360573 194.61768341 C-102.90259357 192.74039187 -103.18442665 190.86352064 -103.46930504 188.98711395 C-106.90629484 166.30392931 -106.90629484 166.30392931 -105.78515625 159.91015625 C-104.1804829 157.86699648 -103.40342537 157.0373003 -100.84765625 156.51171875 C-100.16703125 156.51945313 -99.48640625 156.5271875 -98.78515625 156.53515625 C-98.10453125 156.52742187 -97.42390625 156.5196875 -96.72265625 156.51171875 C-94.08573894 157.05398804 -93.42356951 157.75426355 -91.78515625 159.91015625 C-91.14368905 162.41292839 -90.66952493 164.76769684 -90.28710938 167.31054688 C-90.16503365 168.05974648 -90.04295792 168.80894608 -89.91718292 169.58084869 C-89.524862 172.02186869 -89.15272301 174.46529354 -88.78515625 176.91015625 C-88.66288666 177.71137909 -88.54061707 178.51260193 -88.41464233 179.33810425 C-87.63538242 184.46509838 -86.88787959 189.59632205 -86.15211487 194.72972107 C-85.7426879 197.58206074 -85.32891777 200.43374112 -84.91394043 203.28527832 C-83.73644218 211.37838336 -82.56270419 219.47201156 -81.40087891 227.56738281 C-80.68479852 232.55470355 -79.96063967 237.54079553 -79.2313385 242.52619934 C-78.95723741 244.41067585 -78.68613304 246.29559095 -78.41819763 248.18095398 C-78.04357385 250.81516416 -77.65864956 253.44768611 -77.27148438 256.08007812 C-77.16542374 256.84387787 -77.0593631 257.60767761 -76.9500885 258.3946228 C-75.48865224 268.26198824 -75.48865224 268.26198824 -70.28515625 276.41015625 C-66.06473466 278.9424092 -62.86313773 279.03237884 -58.01879883 279.02368164 C-57.33561081 279.02382767 -56.65242279 279.02397369 -55.9485321 279.02412415 C-53.69221818 279.02342794 -51.43598699 279.01564921 -49.1796875 279.0078125 C-47.61455836 279.00594728 -46.04942864 279.00452387 -44.48429871 279.00352478 C-40.36612332 278.99970777 -36.24798323 278.98988443 -32.12982178 278.9788208 C-27.9270475 278.96858916 -23.72426752 278.9640234 -19.52148438 278.95898438 C-11.27602547 278.94826144 -3.03059525 278.93119479 5.21484375 278.91015625 C4.01061768 278.90081055 2.8063916 278.89146484 1.56567383 278.88183594 C-2.96170169 278.84154415 -7.48842527 278.7756825 -12.01538086 278.70263672 C-13.96353695 278.67465198 -15.91180185 278.65332726 -17.86010742 278.63916016 C-34.08025957 278.51422959 -47.82487351 277.79706674 -59.90625 265.8046875 C-70.44759349 254.56703508 -72.09030251 243.61777899 -72.05981445 228.57861328 C-72.06492538 227.26848267 -72.07003632 225.95835205 -72.07530212 224.60852051 C-72.08861118 221.03815202 -72.08927987 217.4678899 -72.08673882 213.89750147 C-72.08566355 210.90574298 -72.09056666 207.91400553 -72.09534425 204.92225158 C-72.10641154 197.85814497 -72.10689259 190.79409154 -72.10083008 183.72998047 C-72.09479276 176.4675799 -72.10710146 169.20537319 -72.12840015 161.94300568 C-72.14607279 155.68451752 -72.1520086 149.42609074 -72.1487624 143.16757858 C-72.14695833 139.43991368 -72.14949734 135.71238709 -72.16347694 131.98474503 C-72.178502 127.82320007 -72.1690359 123.66204435 -72.1574707 119.50048828 C-72.16893631 117.67346878 -72.16893631 117.67346878 -72.18063354 115.80953979 C-72.06469537 96.8602646 -64.90293886 85.90868629 -51.78515625 72.91015625 C-52.37425781 72.65234375 -52.96335938 72.39453125 -53.5703125 72.12890625 C-61.67452894 67.66944324 -66.01704346 58.04698918 -68.8984375 49.67578125 C-71.85803561 37.10726768 -70.65679458 23.44477328 -64.2421875 12.20703125 C-57.56616562 2.00203671 -48.64816424 -4.89555298 -36.91015625 -8.40234375 C-23.66422046 -11.13647478 -10.73403868 -8.19405546 0 0 Z M18.21484375 161.91015625 C18.11593052 169.0817462 18.04335251 176.25293862 17.99511719 183.42504883 C17.97500811 185.86457232 17.94771692 188.30404765 17.91308594 190.7434082 C17.86453886 194.25093473 17.84186743 197.75782368 17.82421875 201.265625 C17.80357361 202.35538132 17.78292847 203.44513763 17.76165771 204.56791687 C17.71979156 210.60349147 17.71979156 210.60349147 20.11328125 216.02661133 C22.19448375 217.89190841 24.24902136 219.70567749 26.46484375 221.41015625 C31.10218556 225.03758807 35.7043592 228.70208654 40.27734375 232.41015625 C40.96675049 232.96856201 41.65615723 233.52696777 42.36645508 234.10229492 C46.93092547 237.81723182 51.37942819 241.63088386 55.7109375 245.6171875 C57.0106732 247.01881059 57.0106732 247.01881059 58.21484375 246.91015625 C58.21484375 227.77015625 58.21484375 208.63015625 58.21484375 188.91015625 C47.32484375 188.41515625 47.32484375 188.41515625 36.21484375 187.91015625 C31.71484375 183.41015625 31.71484375 183.41015625 31.60546875 178.92578125 C31.57324219 177.99121094 31.54101562 177.05664062 31.5078125 176.09375 C31.49363281 175.12566406 31.47945312 174.15757812 31.46484375 173.16015625 C31.43519531 172.17660156 31.40554687 171.19304687 31.375 170.1796875 C31.30443483 167.75694985 31.2573594 165.33354842 31.21484375 162.91015625 C26.92484375 162.58015625 22.63484375 162.25015625 18.21484375 161.91015625 Z M266.02734375 162.41015625 C264.67576172 162.549375 264.67576172 162.549375 263.296875 162.69140625 C262.60980469 162.76359375 261.92273438 162.83578125 261.21484375 162.91015625 C261.20549805 163.52536133 261.19615234 164.14056641 261.18652344 164.77441406 C261.1327329 167.57046711 261.04910556 170.36486245 260.96484375 173.16015625 C260.94357422 174.61228516 260.94357422 174.61228516 260.921875 176.09375 C260.88964844 177.02832031 260.85742188 177.96289062 260.82421875 178.92578125 C260.79279785 180.21403809 260.79279785 180.21403809 260.76074219 181.52832031 C260.21484375 183.91015625 260.21484375 183.91015625 256.21484375 187.91015625 C245.32484375 188.40515625 245.32484375 188.40515625 234.21484375 188.91015625 C234.21484375 208.05015625 234.21484375 227.19015625 234.21484375 246.91015625 C236.52484375 244.93015625 238.83484375 242.95015625 241.21484375 240.91015625 C243.41451048 239.16766491 245.61969755 237.43832575 247.83984375 235.72265625 C253.81583817 231.06963505 259.6229454 226.24626426 265.375 221.3203125 C267.2265755 219.74889286 269.10877926 218.21266276 271.0234375 216.71875 C273.29049182 215.0965005 273.29049182 215.0965005 274.21484375 212.91015625 C274.30512725 211.2759803 274.33240033 209.63812788 274.32836914 208.00146484 C274.32829361 206.98055756 274.32821808 205.95965027 274.32814026 204.9078064 C274.32297897 203.80256622 274.31781769 202.69732605 274.3125 201.55859375 C274.31108505 200.42942535 274.3096701 199.30025696 274.30821228 198.13687134 C274.30260119 194.51960637 274.29004678 190.90240261 274.27734375 187.28515625 C274.27233018 184.83724048 274.26776703 182.38932373 274.26367188 179.94140625 C274.25262815 173.93096859 274.23587919 167.92056679 274.21484375 161.91015625 C271.43488268 161.91015625 268.78991808 162.12313554 266.02734375 162.41015625 Z " fill="#010102" transform="translate(109.78515625,141.08984375)"/>
<path d="M0 0 C2.26108897 1.71162854 4.44038728 3.48968787 6.609375 5.31640625 C7.79273438 6.28126953 7.79273438 6.28126953 9 7.265625 C28.73464553 24.05248543 42.3761052 49.38748699 44.609375 75.31640625 C46.5861537 105.76428935 39.46108053 133.23873043 19.71875 156.921875 C0.305311 178.95972335 -25.8535205 192.57114463 -55.37060547 194.44189453 C-76.26864378 195.43371653 -96.10092682 190.89836504 -114.26953125 180.4765625 C-118.28022469 178.98572902 -119.45984445 179.75464253 -123.390625 181.31640625 C-125.92246982 182.5033271 -128.42000562 183.71591482 -130.9140625 184.9765625 C-132.36174619 185.69513102 -133.80967042 186.41321509 -135.2578125 187.13085938 C-137.51374797 188.25367545 -139.7677121 189.37995908 -142.01757812 190.51489258 C-144.20705424 191.6170534 -146.40357249 192.70400161 -148.6015625 193.7890625 C-149.26328461 194.12760757 -149.92500671 194.46615265 -150.60678101 194.81495667 C-155.25082486 197.08945855 -159.20950293 198.03075503 -164.390625 198.31640625 C-167.61256 197.18276245 -169.6038289 196.28201965 -171.765625 193.62890625 C-173.75845012 186.2554533 -171.84355722 181.09578696 -168.453125 174.6171875 C-168.05359619 173.81911179 -167.65406738 173.02103607 -167.24243164 172.19877625 C-165.97340795 169.66762102 -164.6839159 167.14773734 -163.390625 164.62890625 C-162.09950329 162.09841361 -160.813282 159.56582707 -159.53881836 157.02690125 C-158.7477568 155.45240519 -157.94687414 153.88279494 -157.13500977 152.31892395 C-154.4750745 147.09618797 -154.4750745 147.09618797 -154.390625 141.31640625 C-155.55139572 138.86813053 -156.75967029 136.5501743 -158.078125 134.19140625 C-170.2533806 111.25185421 -172.13733308 81.75727682 -164.70654297 57.04101562 C-155.76053176 28.73216778 -137.51336955 6.58265487 -111.390625 -7.68359375 C-76.24352898 -25.89075855 -32.23853702 -22.70393702 0 0 Z " fill="#ABFCAB" transform="translate(298.390625,22.68359375)"/>
<path d="M0 0 C48.18 0 96.36 0 146 0 C146 54.45 146 108.9 146 165 C97.82 165 49.64 165 0 165 C0 110.55 0 56.1 0 0 Z " fill="#8F9BD0" transform="translate(183,329)"/>
<path d="M0 0 C1.5054538 -0.01496269 1.5054538 -0.01496269 3.0413208 -0.03022766 C4.13645996 -0.03089233 5.23159912 -0.03155701 6.35992432 -0.03224182 C7.51808655 -0.04056534 8.67624878 -0.04888885 9.86950684 -0.0574646 C13.70521388 -0.08159552 17.54075093 -0.09034108 21.37652588 -0.09693909 C23.36838323 -0.10363804 25.3602406 -0.11033922 27.3520968 -0.117374 C33.61773378 -0.13883976 39.88331662 -0.14817876 46.14898682 -0.15138245 C52.59974941 -0.155014 59.05003512 -0.18488275 65.50065207 -0.22678703 C71.04817438 -0.26155365 76.5955392 -0.276932 82.14316964 -0.27762848 C85.45236086 -0.27841937 88.76095819 -0.28945643 92.07006073 -0.31562614 C95.76606035 -0.34252588 99.4607513 -0.33771729 103.15679932 -0.32521057 C104.24384155 -0.34004486 105.33088379 -0.35487915 106.4508667 -0.37016296 C113.24726273 -0.30478058 117.76990835 0.83847559 123.01715088 5.27415466 C129.62271132 12.40120672 130.13462374 19.37648197 130.16241455 28.88670349 C130.16577316 29.61293411 130.16913177 30.33916473 130.17259216 31.08740234 C130.18202696 33.46868133 130.18404152 35.84988944 130.18511963 38.23118591 C130.18833749 39.90116402 130.19170195 41.57114185 130.19520569 43.24111938 C130.20117835 46.73529208 130.20304752 50.22944012 130.20245361 53.72361755 C130.20235212 58.17848341 130.21599954 62.63318943 130.23322582 67.08801746 C130.24440036 70.53605867 130.24637115 73.98406191 130.24584389 77.43211937 C130.24701598 79.07339211 130.25139392 80.71466608 130.25917625 82.35592079 C130.36142102 106.14593311 130.36142102 106.14593311 122.21636963 114.42259216 C115.76891103 119.85082551 109.13697956 119.60893986 101.01715088 119.27415466 C101.04333496 119.88412292 101.06951904 120.49409119 101.09649658 121.12254333 C101.20080807 123.90198224 101.2655807 126.68100905 101.32965088 129.46165466 C101.37154541 130.42136169 101.41343994 131.38106873 101.456604 132.36985779 C101.53684448 137.00775726 101.49242151 139.53494386 98.93511963 143.51243591 C96.01715088 145.27415466 96.01715088 145.27415466 92.47808838 145.38743591 C88.41182929 144.07944061 87.17423885 142.85232418 84.64215088 139.46165466 C83.89320557 138.47681091 83.14426025 137.49196716 82.37261963 136.47727966 C81.59531494 135.42024841 80.81801025 134.36321716 80.01715088 133.27415466 C79.16192199 132.16258569 78.30382565 131.05321726 77.44293213 129.94602966 C71.01715088 121.60991461 71.01715088 121.60991461 71.01715088 119.27415466 C70.12036621 119.2808165 69.22358154 119.28747833 68.29962158 119.29434204 C59.82564335 119.35458979 51.35173763 119.40019838 42.87759399 119.42959118 C38.52151308 119.4452106 34.16560996 119.46638035 29.80963135 119.50047302 C25.60155503 119.53319996 21.39364914 119.55103566 17.18545532 119.55878639 C15.58437418 119.56430606 13.98330179 119.57508445 12.3822937 119.59134483 C-5.23723699 119.76308902 -5.23723699 119.76308902 -12.22503662 114.62571716 C-19.13620876 107.31773131 -20.1345887 100.49426904 -20.12811279 90.55979919 C-20.13147141 89.81099487 -20.13483002 89.06219055 -20.13829041 88.29069519 C-20.14774455 85.82943537 -20.14974067 83.36824398 -20.15081787 80.90696716 C-20.15403414 79.18592807 -20.15739849 77.46488924 -20.16090393 75.74385071 C-20.16688123 72.14115261 -20.16874525 68.53847846 -20.16815186 64.93577576 C-20.16805028 60.33383488 -20.18170441 55.73204843 -20.19892406 51.13014412 C-20.21007665 47.57666833 -20.21207007 44.0232295 -20.21154213 40.46973801 C-20.21271726 38.77378176 -20.21711264 37.07782442 -20.2248745 35.38188553 C-20.2347411 33.00358192 -20.23177037 30.62560885 -20.22576904 28.24729919 C-20.23138855 27.55613007 -20.23700806 26.86496094 -20.24279785 26.15284729 C-20.1947599 18.60979315 -18.75377945 12.27189565 -13.98284912 6.27415466 C-9.52750452 2.26434452 -6.04268574 0.03226935 0 0 Z " fill="#FDE884" transform="translate(378.98284912109375,3.7258453369140625)"/>
<path d="M0 0 C7.2353916 3.17685472 11.02847585 9.18778692 13.86328125 16.33984375 C16.14260146 22.79665977 16.16361939 28.79256584 15.95703125 35.57421875 C15.93898438 36.71697266 15.9209375 37.85972656 15.90234375 39.03710938 C15.8557476 41.82122922 15.79035163 44.60349764 15.70703125 47.38671875 C16.7228125 47.3403125 17.73859375 47.29390625 18.78515625 47.24609375 C28.20127879 46.94416249 37.92631979 46.82537611 45.70703125 52.96484375 C52.13473885 59.82518552 52.22336163 68.47620415 52.0234375 77.4453125 C51.25356339 93.3420854 48.30007453 115.79367547 36.58203125 127.51171875 C24.20348122 135.58468616 9.35416726 135.72787701 -4.98046875 135.63671875 C-6.8222168 135.64832031 -6.8222168 135.64832031 -8.70117188 135.66015625 C-17.48690194 135.64143333 -25.74211146 134.80015581 -34.16796875 132.26171875 C-37.17745236 131.41906334 -39.20805111 130.99121649 -42.29296875 131.38671875 C-43.11667969 131.87914062 -43.94039062 132.3715625 -44.7890625 132.87890625 C-49.53505855 134.92121893 -53.68247422 134.86342059 -58.79296875 134.82421875 C-60.17935547 134.85418945 -60.17935547 134.85418945 -61.59375 134.88476562 C-67.29773641 134.88068552 -70.87725569 134.36225788 -75.29296875 130.38671875 C-77.61676337 126.87614675 -77.56311494 123.74693618 -77.59936523 119.60205078 C-77.60768875 118.92835449 -77.61601227 118.2546582 -77.62458801 117.56054688 C-77.64863818 115.33848248 -77.65745373 113.1167119 -77.6640625 110.89453125 C-77.67303251 109.3452038 -77.68215442 107.79587722 -77.69142151 106.24655151 C-77.7079004 103.00012103 -77.71560962 99.75379353 -77.71850586 96.50732422 C-77.72388924 92.35541964 -77.76157075 88.20448821 -77.80725002 84.05285835 C-77.83705055 80.85285948 -77.84423005 77.65309415 -77.84523201 74.4529686 C-77.84942827 72.9227846 -77.86183891 71.39259952 -77.88274956 69.86255264 C-77.90972989 67.71770712 -77.90482194 65.57510661 -77.89233398 63.43017578 C-77.89740463 62.21202179 -77.90247528 60.9938678 -77.90769958 59.73880005 C-77.08552227 55.2555286 -75.47207663 53.6085142 -72.29296875 50.38671875 C-68.18861202 48.33454038 -62.86621747 49.20182763 -58.35546875 49.19921875 C-57.24494141 49.18697266 -56.13441406 49.17472656 -54.99023438 49.16210938 C-53.39405273 49.15920898 -53.39405273 49.15920898 -51.765625 49.15625 C-50.78859619 49.15214111 -49.81156738 49.14803223 -48.80493164 49.14379883 C-46.29296875 49.38671875 -46.29296875 49.38671875 -43.29296875 51.38671875 C-37.93922202 51.07179247 -31.70428181 48.50170177 -27.671875 44.96484375 C-22.17371895 38.63462254 -21.2816352 31.84685697 -21.15234375 23.7265625 C-21.13300781 22.68564453 -21.11367187 21.64472656 -21.09375 20.57226562 C-21.05983771 18.40318328 -21.04166208 16.23379899 -21.0390625 14.06445312 C-20.83091712 5.22922928 -20.83091712 5.22922928 -17.87109375 2.203125 C-12.46508305 -1.60565526 -6.37030265 -1.70381178 0 0 Z " fill="#030403" transform="translate(249.29296875,32.61328125)"/>
<path d="M0 0 C2.26108897 1.71162854 4.44038728 3.48968787 6.609375 5.31640625 C7.79273438 6.28126953 7.79273438 6.28126953 9 7.265625 C28.73464553 24.05248543 42.3761052 49.38748699 44.609375 75.31640625 C46.5861537 105.76428935 39.46108053 133.23873043 19.71875 156.921875 C0.305311 178.95972335 -25.8535205 192.57114463 -55.37060547 194.44189453 C-76.26864378 195.43371653 -96.10092682 190.89836504 -114.26953125 180.4765625 C-118.28022469 178.98572902 -119.45984445 179.75464253 -123.390625 181.31640625 C-125.92246982 182.5033271 -128.42000562 183.71591482 -130.9140625 184.9765625 C-132.36174619 185.69513102 -133.80967042 186.41321509 -135.2578125 187.13085938 C-137.51374797 188.25367545 -139.7677121 189.37995908 -142.01757812 190.51489258 C-144.20705424 191.6170534 -146.40357249 192.70400161 -148.6015625 193.7890625 C-149.26328461 194.12760757 -149.92500671 194.46615265 -150.60678101 194.81495667 C-155.25082486 197.08945855 -159.20950293 198.03075503 -164.390625 198.31640625 C-167.61256 197.18276245 -169.6038289 196.28201965 -171.765625 193.62890625 C-173.75845012 186.2554533 -171.84355722 181.09578696 -168.453125 174.6171875 C-168.05359619 173.81911179 -167.65406738 173.02103607 -167.24243164 172.19877625 C-165.97340795 169.66762102 -164.6839159 167.14773734 -163.390625 164.62890625 C-162.09950329 162.09841361 -160.813282 159.56582707 -159.53881836 157.02690125 C-158.7477568 155.45240519 -157.94687414 153.88279494 -157.13500977 152.31892395 C-154.4750745 147.09618797 -154.4750745 147.09618797 -154.390625 141.31640625 C-155.55139572 138.86813053 -156.75967029 136.5501743 -158.078125 134.19140625 C-170.2533806 111.25185421 -172.13733308 81.75727682 -164.70654297 57.04101562 C-155.76053176 28.73216778 -137.51336955 6.58265487 -111.390625 -7.68359375 C-76.24352898 -25.89075855 -32.23853702 -22.70393702 0 0 Z M-123.390625 18.31640625 C-124.71320313 19.47076172 -124.71320313 19.47076172 -126.0625 20.6484375 C-143.35419481 36.83926354 -154.01652562 60.46469372 -154.81030273 84.12231445 C-154.96639155 103.88572418 -149.65314908 121.40162714 -139.390625 138.31640625 C-139.060625 138.64640625 -138.730625 138.97640625 -138.390625 139.31640625 C-137.901584 144.93661588 -139.15565471 148.81463558 -141.70703125 153.7109375 C-142.0423436 154.38436691 -142.37765594 155.05779633 -142.72312927 155.75163269 C-143.78679933 157.88422109 -144.86841117 160.0069544 -145.953125 162.12890625 C-147.03922999 164.26965928 -148.12117256 166.412215 -149.1938324 168.55973816 C-149.85986257 169.89166811 -150.53401823 171.21957142 -151.2169342 172.54292297 C-152.00183123 174.10520422 -152.70459847 175.70825401 -153.390625 177.31640625 C-153.060625 177.97640625 -152.730625 178.63640625 -152.390625 179.31640625 C-151.78178467 179.00936768 -151.17294434 178.7023291 -150.5456543 178.38598633 C-147.72425458 176.96474392 -144.90120142 175.54681504 -142.078125 174.12890625 C-140.64243164 173.40477539 -140.64243164 173.40477539 -139.17773438 172.66601562 C-136.25626174 171.200361 -133.3241938 169.75767079 -130.390625 168.31640625 C-129.40916504 167.8167334 -128.42770508 167.31706055 -127.41650391 166.80224609 C-120.326229 163.32860014 -120.326229 163.32860014 -116.09375 163.2734375 C-112.83799358 164.52963253 -110.08923349 166.13431753 -107.140625 168.00390625 C-101.6596268 171.31224304 -96.15075962 173.73201509 -90.078125 175.75390625 C-89.35012695 176.00035889 -88.62212891 176.24681152 -87.87207031 176.50073242 C-72.45248055 181.40966248 -51.55236544 181.84867368 -36.390625 176.31640625 C-35.09794435 175.88585279 -33.80495142 175.45623627 -32.51171875 175.02734375 C-24.0241522 172.11575457 -16.79848666 168.44110787 -9.390625 163.31640625 C-8.61589844 162.89359375 -7.84117187 162.47078125 -7.04296875 162.03515625 C7.72887622 152.46282667 18.22746927 136.38762871 24.609375 120.31640625 C24.85308838 119.724646 25.09680176 119.13288574 25.34790039 118.52319336 C27.297057 113.6204401 28.47109132 108.8332112 29.296875 103.62890625 C29.42280029 102.84362549 29.54872559 102.05834473 29.6784668 101.24926758 C31.37371844 89.99541361 30.76649698 79.47298615 28.609375 68.31640625 C28.35220703 66.87007812 28.35220703 66.87007812 28.08984375 65.39453125 C23.50805862 43.52020222 8.40008366 23.25334527 -9.890625 10.94140625 C-45.67592183 -12.23953366 -91.1664994 -9.81508308 -123.390625 18.31640625 Z " fill="#010101" transform="translate(298.390625,22.68359375)"/>
<path d="M0 0 C1.5054538 -0.01496269 1.5054538 -0.01496269 3.0413208 -0.03022766 C4.13645996 -0.03089233 5.23159912 -0.03155701 6.35992432 -0.03224182 C7.51808655 -0.04056534 8.67624878 -0.04888885 9.86950684 -0.0574646 C13.70521388 -0.08159552 17.54075093 -0.09034108 21.37652588 -0.09693909 C23.36838323 -0.10363804 25.3602406 -0.11033922 27.3520968 -0.117374 C33.61773378 -0.13883976 39.88331662 -0.14817876 46.14898682 -0.15138245 C52.59974941 -0.155014 59.05003512 -0.18488275 65.50065207 -0.22678703 C71.04817438 -0.26155365 76.5955392 -0.276932 82.14316964 -0.27762848 C85.45236086 -0.27841937 88.76095819 -0.28945643 92.07006073 -0.31562614 C95.76606035 -0.34252588 99.4607513 -0.33771729 103.15679932 -0.32521057 C104.24384155 -0.34004486 105.33088379 -0.35487915 106.4508667 -0.37016296 C113.24726273 -0.30478058 117.76990835 0.83847559 123.01715088 5.27415466 C129.62271132 12.40120672 130.13462374 19.37648197 130.16241455 28.88670349 C130.16577316 29.61293411 130.16913177 30.33916473 130.17259216 31.08740234 C130.18202696 33.46868133 130.18404152 35.84988944 130.18511963 38.23118591 C130.18833749 39.90116402 130.19170195 41.57114185 130.19520569 43.24111938 C130.20117835 46.73529208 130.20304752 50.22944012 130.20245361 53.72361755 C130.20235212 58.17848341 130.21599954 62.63318943 130.23322582 67.08801746 C130.24440036 70.53605867 130.24637115 73.98406191 130.24584389 77.43211937 C130.24701598 79.07339211 130.25139392 80.71466608 130.25917625 82.35592079 C130.36142102 106.14593311 130.36142102 106.14593311 122.21636963 114.42259216 C115.76891103 119.85082551 109.13697956 119.60893986 101.01715088 119.27415466 C101.04333496 119.88412292 101.06951904 120.49409119 101.09649658 121.12254333 C101.20080807 123.90198224 101.2655807 126.68100905 101.32965088 129.46165466 C101.37154541 130.42136169 101.41343994 131.38106873 101.456604 132.36985779 C101.53684448 137.00775726 101.49242151 139.53494386 98.93511963 143.51243591 C96.01715088 145.27415466 96.01715088 145.27415466 92.47808838 145.38743591 C88.41182929 144.07944061 87.17423885 142.85232418 84.64215088 139.46165466 C83.89320557 138.47681091 83.14426025 137.49196716 82.37261963 136.47727966 C81.59531494 135.42024841 80.81801025 134.36321716 80.01715088 133.27415466 C79.16192199 132.16258569 78.30382565 131.05321726 77.44293213 129.94602966 C71.01715088 121.60991461 71.01715088 121.60991461 71.01715088 119.27415466 C70.12036621 119.2808165 69.22358154 119.28747833 68.29962158 119.29434204 C59.82564335 119.35458979 51.35173763 119.40019838 42.87759399 119.42959118 C38.52151308 119.4452106 34.16560996 119.46638035 29.80963135 119.50047302 C25.60155503 119.53319996 21.39364914 119.55103566 17.18545532 119.55878639 C15.58437418 119.56430606 13.98330179 119.57508445 12.3822937 119.59134483 C-5.23723699 119.76308902 -5.23723699 119.76308902 -12.22503662 114.62571716 C-19.13620876 107.31773131 -20.1345887 100.49426904 -20.12811279 90.55979919 C-20.13147141 89.81099487 -20.13483002 89.06219055 -20.13829041 88.29069519 C-20.14774455 85.82943537 -20.14974067 83.36824398 -20.15081787 80.90696716 C-20.15403414 79.18592807 -20.15739849 77.46488924 -20.16090393 75.74385071 C-20.16688123 72.14115261 -20.16874525 68.53847846 -20.16815186 64.93577576 C-20.16805028 60.33383488 -20.18170441 55.73204843 -20.19892406 51.13014412 C-20.21007665 47.57666833 -20.21207007 44.0232295 -20.21154213 40.46973801 C-20.21271726 38.77378176 -20.21711264 37.07782442 -20.2248745 35.38188553 C-20.2347411 33.00358192 -20.23177037 30.62560885 -20.22576904 28.24729919 C-20.23138855 27.55613007 -20.23700806 26.86496094 -20.24279785 26.15284729 C-20.1947599 18.60979315 -18.75377945 12.27189565 -13.98284912 6.27415466 C-9.52750452 2.26434452 -6.04268574 0.03226935 0 0 Z M-3.61076355 15.81163025 C-5.52254531 19.2427641 -5.54195991 22.36507405 -5.50042725 26.19212341 C-5.50743652 26.98607513 -5.5144458 27.78002686 -5.52166748 28.59803772 C-5.53925698 31.2196003 -5.52762185 33.84008131 -5.51409912 36.46165466 C-5.51679377 38.28481758 -5.52067597 40.10797909 -5.5256958 41.93113708 C-5.53159212 45.75101919 -5.52302366 49.57052702 -5.5043335 53.3903656 C-5.48154376 58.28670036 -5.49466614 63.18215812 -5.51862335 68.07846069 C-5.53307776 71.84286609 -5.528477 75.60706356 -5.51811218 79.37147522 C-5.5154439 81.17679447 -5.51871822 82.9821326 -5.5280304 84.78742981 C-5.5381903 87.31085709 -5.52270399 89.83286441 -5.50042725 92.35618591 C-5.50852417 93.10228119 -5.51662109 93.84837646 -5.52496338 94.61708069 C-5.47171536 97.87295928 -5.1760926 99.97011111 -3.41569519 102.73986816 C-0.13909147 104.80627463 2.70703929 104.81001749 6.46026611 104.7407074 C7.20384369 104.74301361 7.94742126 104.74531982 8.71353149 104.74769592 C10.32480729 104.75032226 11.93611772 104.74389543 13.54733086 104.7294445 C16.0991747 104.70754736 18.64983381 104.71127757 21.20173645 104.72192383 C27.53882525 104.74358858 33.87565064 104.72622791 40.21270752 104.70042419 C45.56889729 104.67901846 50.92432723 104.67708114 56.28050423 104.70334053 C58.79195988 104.7076899 61.302094 104.683058 63.81340027 104.6578064 C65.35715319 104.66307816 66.90090207 104.6698013 68.44464111 104.6782074 C69.48826057 104.65584267 69.48826057 104.65584267 70.55296326 104.63302612 C74.35091917 104.68866174 75.87390126 105.15323278 78.81465149 107.63562012 C79.54147629 108.50633652 80.26830109 109.37705292 81.01715088 110.27415466 C81.94527588 111.20227966 82.87340088 112.13040466 83.82965088 113.08665466 C84.55152588 113.80852966 85.27340088 114.53040466 86.01715088 115.27415466 C86.18150635 114.31702576 86.18150635 114.31702576 86.34918213 113.34056091 C86.50773682 112.51427185 86.6662915 111.68798279 86.82965088 110.83665466 C86.98047119 110.01294373 87.1312915 109.18923279 87.28668213 108.34056091 C87.52773682 107.65864685 87.7687915 106.97673279 88.01715088 106.27415466 C90.82749151 105.33737445 92.63120433 105.13932269 95.54449463 105.09837341 C96.85643799 105.06260193 96.85643799 105.06260193 98.19488525 105.02610779 C100.03058813 104.98323575 101.86659866 104.95193241 103.70269775 104.93235779 C104.57861572 104.90464294 105.45453369 104.8769281 106.35699463 104.84837341 C107.15484375 104.83379089 107.95269287 104.81920837 108.77471924 104.80418396 C111.96788174 104.04943646 113.01724058 102.87467313 115.01715088 100.27415466 C115.41699569 97.50282669 115.57483132 95.12673391 115.55059814 92.35618591 C115.55921371 91.56223419 115.56782928 90.76828247 115.57670593 89.95027161 C115.59938858 87.32873332 115.59262362 84.70826194 115.58355713 82.08665466 C115.58879147 80.26349062 115.59506725 78.44032929 115.6023407 76.61717224 C115.61274893 72.79729971 115.60817707 68.97779962 115.59356689 65.15794373 C115.57637239 60.26147751 115.59987989 55.36618399 115.6350565 50.46984863 C115.65701013 46.70543128 115.6555941 42.94129546 115.64729118 39.17683411 C115.64647066 37.37150282 115.65335342 35.56615107 115.66806221 33.76087952 C115.68547265 31.23722589 115.67099746 28.7156915 115.64825439 26.19212341 C115.65994659 25.44602814 115.67163879 24.69993286 115.6836853 23.93122864 C115.62063832 20.49498008 115.24121088 18.56903739 113.14605713 15.81163025 C108.54277613 13.5496794 104.39030765 13.71610467 99.32354736 13.75657654 C97.70812042 13.74606262 97.70812042 13.74606262 96.06005859 13.7353363 C92.50252452 13.71774018 88.9457867 13.72938469 85.38824463 13.74290466 C82.91632433 13.74021043 80.44440507 13.73632859 77.9724884 13.73130798 C72.79334416 13.72541088 67.61447593 13.7339839 62.43536377 13.75267029 C55.79149403 13.77547137 49.14827019 13.76233002 42.5044241 13.73838043 C37.40095639 13.72393867 32.29764229 13.72852089 27.19417 13.7388916 C24.74410997 13.74156273 22.29403606 13.73827562 19.84399223 13.72897339 C16.4227379 13.71883367 13.00253567 13.73427372 9.58135986 13.75657654 C8.56566422 13.74847961 7.54996857 13.74038269 6.50349426 13.73204041 C1.19388532 13.78481782 1.19388532 13.78481782 -3.61076355 15.81163025 Z " fill="#010100" transform="translate(378.98284912109375,3.7258453369140625)"/>
<path d="M0 0 C7.84919962 -0.23212517 15.69759016 -0.40958585 23.54936409 -0.51812172 C27.19592962 -0.57022912 30.84014124 -0.6408302 34.48535156 -0.75439453 C38.00634539 -0.86339714 41.52508299 -0.92290474 45.04763412 -0.94877243 C47.03911668 -0.97613389 49.02969525 -1.05415537 51.01980591 -1.13296509 C54.61489328 -1.13518935 57.55908764 -1.04844016 61 0 C63.26028943 2.37342215 64.50829967 4.53035734 65.83312988 7.51838684 C67.71979145 11.53079928 70.89008894 13.71004164 74.375 16.3125 C75.78919725 17.41779636 77.2032556 18.52327047 78.6171875 19.62890625 C79.33874023 20.18336426 80.06029297 20.73782227 80.80371094 21.30908203 C106.71624374 41.25908228 106.71624374 41.25908228 109.99438477 53.43432617 C110.95426964 57.00901475 110.95426964 57.00901475 112.25976562 60.44897461 C117.32874431 74.92940181 116.58379991 89.85837644 116.34332275 104.97680664 C116.29136983 108.59766801 116.26916971 112.21871393 116.24414062 115.83984375 C116.19116268 122.89366757 116.10629173 129.94676061 116 137 C114.35 137 112.7 137 111 137 C107.91480734 130.35914505 105.32664923 123.61060618 102.8828125 116.7109375 C102.50317352 115.64944489 102.12353455 114.58795227 101.73239136 113.49429321 C100.52665726 110.12235225 99.3253569 106.74885856 98.125 103.375 C89.86497249 73.50692628 89.86497249 73.50692628 70.9296875 50.91015625 C67.56486008 49.32310202 64.4553533 48.87590586 60.75732422 48.8581543 C59.92901093 48.85111984 59.10069763 48.84408539 58.24728394 48.83683777 C56.9144487 48.83059135 56.9144487 48.83059135 55.5546875 48.82421875 C53.65363491 48.80100792 51.75259323 48.77689009 49.8515625 48.75195312 C46.86971873 48.71696759 43.88827325 48.68756004 40.90625 48.67407227 C38.01774241 48.65846779 35.13038567 48.61817061 32.2421875 48.57421875 C31.36577606 48.57612717 30.48936462 48.57803558 29.58639526 48.58000183 C20.43610325 48.40189488 12.50530346 45.50530346 6 39 C1.63148664 33.17531552 -0.26189911 28.67795309 -0.1953125 21.38671875 C-0.18886719 20.13955078 -0.18242188 18.89238281 -0.17578125 17.60742188 C-0.15902344 16.31384766 -0.14226563 15.02027344 -0.125 13.6875 C-0.11597656 12.37458984 -0.10695312 11.06167969 -0.09765625 9.70898438 C-0.07411797 6.47247087 -0.0412352 3.23632851 0 0 Z " fill="#827582" transform="translate(53,357)"/>
<path d="M0 0 C20.46 0 40.92 0 62 0 C62 31.52941176 62 31.52941176 54 40 C46.49748252 45.93222312 38.55288773 47.43955278 29.21484375 47.40625 C27.86405479 47.42250427 27.86405479 47.42250427 26.48597717 47.43908691 C22.67518903 47.48451416 18.86447673 47.49639034 15.0534668 47.51123047 C12.25285286 47.52700858 9.45278995 47.56001592 6.65234375 47.59375 C5.80316879 47.59072876 4.95399384 47.58770752 4.0790863 47.58459473 C-4.23476775 47.68821923 -10.9635999 49.9480475 -17.05754089 55.79391479 C-23.46855675 63.07501903 -26.02857066 74.24505296 -29.23046875 83.2421875 C-29.7113459 84.58227748 -30.19266254 85.92220983 -30.6743927 87.26199341 C-31.92866037 90.75361246 -33.17756609 94.24712368 -34.42510986 97.7411499 C-36.1896347 102.67987 -37.96168036 107.61589796 -39.73274231 112.55227661 C-40.67282924 115.17260568 -41.6109413 117.79362812 -42.54740906 120.41525269 C-43.18365959 122.19332809 -43.18365959 122.19332809 -43.83276367 124.00732422 C-44.20406906 125.04670135 -44.57537445 126.08607849 -44.95793152 127.1569519 C-45.47375542 128.56426071 -45.47375542 128.56426071 -46 130 C-46.25094925 130.92797394 -46.5018985 131.85594788 -46.76045227 132.81204224 C-47.16950302 133.5340683 -47.57855377 134.25609436 -48 135 C-51.125 135.8125 -51.125 135.8125 -54 136 C-54.18893715 128.40031373 -54.32925268 120.80088213 -54.41449738 113.19935226 C-54.45550146 109.66588731 -54.51065933 106.13407535 -54.60351562 102.6015625 C-55.15327041 81.08767068 -55.2648442 54.95516922 -40 38 C-32.42357595 30.28908322 -23.79747982 23.61758613 -15.1796875 17.1171875 C-13.82804048 16.07823494 -12.4764779 15.03917253 -11.125 14 C-10.16062012 13.2886792 -10.16062012 13.2886792 -9.17675781 12.56298828 C-8.56413086 12.08845215 -7.95150391 11.61391602 -7.3203125 11.125 C-6.77648926 10.71507812 -6.23266602 10.30515625 -5.67236328 9.8828125 C-3.19773978 7.26086569 -3.19773978 7.26086569 0 0 Z " fill="#817581" transform="translate(397,358)"/>
<path d="M0 0 C2.63605591 1.06867131 4.48613903 2.16187981 5.99780273 4.62744141 C9.00574104 12.18306362 8.2591154 20.39828664 8.0625 28.375 C8.01457193 30.56620414 7.9713212 32.75712765 7.94029236 34.94863892 C7.91164602 36.92087046 7.86655184 38.89284287 7.82055664 40.86474609 C7.74400852 44.16445036 7.74400852 44.16445036 10 47 C12.49804662 47.47727814 12.49804662 47.47727814 15.41796875 47.44140625 C16.50787109 47.46783203 17.59777344 47.49425781 18.72070312 47.52148438 C20.43676758 47.54178711 20.43676758 47.54178711 22.1875 47.5625 C39.83556461 47.83556461 39.83556461 47.83556461 44 52 C45.93584545 67.37421445 43.17756875 89.68289782 35 103 C31.8125 105.1875 31.8125 105.1875 28 106 C27.32855957 106.1654834 26.65711914 106.3309668 25.96533203 106.50146484 C18.34597921 108.25347348 10.85632742 108.4029631 3.0625 108.4375 C1.15114258 108.48680664 1.15114258 108.48680664 -0.79882812 108.53710938 C-12.48669157 108.60123232 -19.89393238 106.18580727 -32 103 C-32 86.17 -32 69.34 -32 52 C-27.05 50.02 -22.1 48.04 -17 46 C-7.89478673 39.76355255 -3.46760082 30.65254462 -1 20 C-0.64438364 16.52418197 -0.49563912 13.0534945 -0.375 9.5625 C-0.33632812 8.64017578 -0.29765625 7.71785156 -0.2578125 6.76757812 C-0.16431324 4.51190857 -0.0785609 2.25623084 0 0 Z " fill="#EEE1DD" transform="translate(243,46)"/>
<path d="M0 0 C7.56308337 4.73026769 11.98184976 11.16703107 15.2109375 19.3828125 C15.8343922 22.78688604 15.84907117 26.06098997 15.77856445 29.51416016 C15.77929459 30.47147034 15.78002472 31.42878052 15.78077698 32.4151001 C15.77732567 35.54295835 15.73858135 38.66928067 15.69921875 41.796875 C15.68988188 43.97975857 15.6827699 46.1626527 15.67778015 48.34555054 C15.65877931 54.06351143 15.60973801 59.78082736 15.55426025 65.49853516 C15.49387596 72.37349624 15.47111866 79.24867415 15.44199371 86.12382507 C15.39366915 96.54393476 15.29780451 106.96263204 15.2109375 117.3828125 C-4.5890625 117.3828125 -24.3890625 117.3828125 -44.7890625 117.3828125 C-45.1396875 109.8340625 -45.4903125 102.2853125 -45.8515625 94.5078125 C-46.0837146 90.96377686 -46.0837146 90.96377686 -46.32055664 87.34814453 C-46.87433792 73.0017341 -46.87433792 73.0017341 -43.27005005 68.47506714 C-39.29324772 65.16143883 -34.7747132 63.17570958 -29.99160767 61.28601074 C-26.83403357 59.99118355 -24.02716496 58.32794678 -21.08984375 56.58984375 C-18.071524 54.8775838 -15.05288297 53.16833683 -12.01757812 51.48632812 C-5.20261764 47.59142909 0.02645406 43.75177938 3.5859375 36.6328125 C4.97702066 29.39918008 5.26960631 22.61918708 1.4765625 16.1015625 C-2.63199762 10.52203641 -7.52531533 8.05046903 -14.30859375 6.98828125 C-22.80868444 6.31692201 -28.35698379 9.23883006 -35.44140625 13.4375 C-38.2031706 15.04235256 -40.79479699 16.30328604 -43.7890625 17.3828125 C-39.44712893 8.07536979 -34.95988283 3.22084125 -25.7890625 -1.6171875 C-17.85109838 -4.26317554 -7.5325911 -3.5786064 0 0 Z " fill="#84C8FD" transform="translate(443.7890625,225.6171875)"/>
<path d="M0 0 C5.84315901 3.82052705 8.71729392 9.00498713 12 15 C11.01 15.495 11.01 15.495 10 16 C8.35180664 15.30322266 8.35180664 15.30322266 6.41015625 14.1640625 C5.70826172 13.75929687 5.00636719 13.35453125 4.28320312 12.9375 C3.18395508 12.2878125 3.18395508 12.2878125 2.0625 11.625 C0.61720371 10.78159102 -0.82936375 9.94035568 -2.27734375 9.1015625 C-2.91921631 8.72338379 -3.56108887 8.34520508 -4.22241211 7.95556641 C-9.90025019 4.90336778 -17.21414963 5.01429767 -23.35546875 6.61328125 C-28.76240082 8.98731138 -32.02493663 12.98665791 -35 18 C-37.08432527 24.25297581 -36.96311643 31.99725648 -34.17211914 38.04345703 C-29.57178964 45.7224907 -20.40171868 49.86087437 -12.8125 53.9375 C-9.61722504 55.67376325 -6.43394089 57.41567379 -3.28442383 59.23388672 C-0.00636807 61.09069731 -0.00636807 61.09069731 3.66918945 62.37939453 C7.78707535 64.17568784 10.12957352 65.51486238 13 69 C15.15408886 76.70394417 14.20387532 85.1266688 13.8125 93 C13.544375 100.59 13.27625 108.18 13 116 C-6.8 116 -26.6 116 -47 116 C-47.20054405 91.94362747 -47.20054405 91.94362747 -47.24414062 81.65234375 C-47.27397579 74.64287277 -47.30918824 67.63372982 -47.37719727 60.62451172 C-47.43171068 54.97050772 -47.46146152 49.31685572 -47.47438622 43.6626091 C-47.48359138 41.51051674 -47.50156684 39.35844263 -47.52865028 37.20650101 C-47.56519704 34.18103356 -47.5699346 31.15700196 -47.56762695 28.13134766 C-47.58560333 27.25092804 -47.60357971 26.37050842 -47.62210083 25.46340942 C-47.55813564 17.66162419 -44.69682787 11.62865864 -40.078125 5.4140625 C-28.97441113 -5.45239253 -13.9108588 -7.93783468 0 0 Z " fill="#84C9FD" transform="translate(100,227)"/>
<path d="M0 0 C8.02331768 3.64241099 13.87002687 10.00071064 17.56640625 17.94921875 C20.5083671 26.40735619 20.28526461 35.63284005 16.5234375 43.78125 C12.76076703 50.02546721 7.45150094 56.74781857 0.55859375 59.640625 C-6.97195584 61.3285068 -16.01337805 61.76005233 -22.99609375 58.13671875 C-25.04296875 56.7421875 -25.04296875 56.7421875 -26.93359375 55.19921875 C-27.578125 54.67972656 -28.22265625 54.16023438 -28.88671875 53.625 C-35.00900043 48.10722932 -38.43895471 40.72944543 -39.171875 32.53515625 C-39.43188122 22.16227657 -37.02795346 14.58890816 -29.875 6.95703125 C-21.26234408 -0.84114815 -11.30198314 -3.08509526 0 0 Z " fill="#EEE1DD" transform="translate(438.93359375,147.80078125)"/>
<path d="M0 0 C7.16062971 5.23888806 12.27725666 11.96681963 14.28515625 20.671875 C15.62948156 30.83753498 13.70492605 39.80126772 7.48828125 48.05859375 C2.07062935 53.9204931 -3.34649184 57.17277059 -11.3046875 58.08203125 C-20.91800493 58.45657608 -26.8089843 57.13814131 -33.89453125 50.6875 C-40.61458097 43.74591018 -43.85137174 36.84931722 -44.21484375 27.171875 C-43.82129676 16.99928156 -40.23427304 10.10771707 -33.19140625 2.8125 C-23.98673295 -5.14358986 -10.49070314 -6.07266718 0 0 Z " fill="#EEE1DD" transform="translate(97.71484375,150.328125)"/>
<path d="M0 0 C66.33 0 132.66 0 201 0 C201 3.96 201 7.92 201 12 C134.67 12 68.34 12 0 12 C0 8.04 0 4.08 0 0 Z " fill="#5D689E" transform="translate(155,303)"/>
<path d="M0 0 C4.0749503 1.82792314 7.88985952 4.0272636 11.71112061 6.32562256 C13.58689219 7.45214914 15.47591968 8.55286085 17.36962891 9.64892578 C22.47583517 12.61977354 27.54819301 15.61068757 32.39453125 18.99609375 C41.73138637 25.47234929 50.29049002 26.44894929 61.45214844 26.86279297 C66.36466168 27.05277593 71.27123532 27.32957081 76.17958069 27.60508728 C80.0595569 27.82260234 83.9393109 28.03275901 87.82104492 28.21655273 C95.37149368 28.58458992 102.89845699 29.09019256 110.41796875 29.875 C111.13535721 29.94130615 111.85274567 30.0076123 112.59187317 30.07592773 C115.43340844 30.39800578 117.58978863 30.72048306 119.9777832 32.34765625 C121 34 121 34 120.9375 37.5625 C120 41 120 41 118.39370728 42.19073486 C115.13131302 43.29368591 112.20733393 43.31784546 108.76318359 43.38574219 C108.04048782 43.40209717 107.31779205 43.41845215 106.57319641 43.43530273 C104.18164262 43.4848975 101.79032807 43.5180391 99.3984375 43.546875 C98.57506519 43.55752235 97.75169289 43.56816971 96.9033699 43.57913971 C92.53197208 43.63259361 88.16068741 43.67131864 83.7890625 43.70019531 C80.20369304 43.72669316 76.62065006 43.78203846 73.03613281 43.86425781 C35.86600834 44.6974587 35.86600834 44.6974587 22.68011475 34.28308105 C20.03606302 32.26385428 17.19201213 30.76762363 14.2734375 29.171875 C12.30622203 28.03309577 10.34004105 26.89252723 8.375 25.75 C7.37855469 25.17765625 6.38210937 24.6053125 5.35546875 24.015625 C-7.3961455 16.6038545 -7.3961455 16.6038545 -12 12 C-12.57692308 4.96153846 -12.57692308 4.96153846 -10.5 1.5 C-6.89744902 -0.66153059 -4.02687868 -0.81436396 0 0 Z " fill="#EDE0DC" transform="translate(89,246)"/>
<path d="M0 0 C3.64224671 2.55732216 4.79931634 4.0801999 5.75 8.4375 C4.72078142 13.32628826 1.89243369 15.20336009 -2 18 C-5.88086772 20.39580525 -9.86576154 22.57754655 -13.875 24.75 C-16.10502643 25.9763024 -18.33418977 27.20417561 -20.5625 28.43359375 C-21.65304687 29.03413574 -22.74359375 29.63467773 -23.8671875 30.25341797 C-28.95772724 33.09145734 -33.96693426 36.062622 -38.96044922 39.06738281 C-44.3227102 42.2723808 -48.19106185 43.15345989 -54.34545898 43.17700195 C-55.09049683 43.18357315 -55.83553467 43.19014435 -56.60314941 43.19691467 C-59.06746523 43.21661868 -61.53172028 43.22830172 -63.99609375 43.23828125 C-64.83785723 43.24235678 -65.6796207 43.2464323 -66.54689217 43.25063133 C-70.99943928 43.2714764 -75.45195568 43.28578674 -79.90454102 43.29516602 C-84.50599496 43.30624724 -89.10696755 43.34067097 -93.708251 43.38033772 C-97.24527395 43.40645651 -100.78218115 43.41485344 -104.31929207 43.41844749 C-106.01579108 43.42332315 -107.71228458 43.43496496 -109.4086895 43.45348549 C-111.78123326 43.47778461 -114.15251689 43.47692983 -116.52514648 43.4699707 C-117.22605911 43.48278076 -117.92697174 43.49559082 -118.64912415 43.50878906 C-122.01900886 43.47273675 -123.72849512 43.20911079 -126.43202209 41.12687683 C-128 39 -128 39 -128.5625 36.5 C-127.73906577 32.84029232 -126.13631115 31.99165517 -123 30 C-120.13419737 29.53365709 -117.60809385 29.28299524 -114.734375 29.20703125 C-113.94154114 29.17067062 -113.14870728 29.13431 -112.33184814 29.09684753 C-109.80494332 28.98442787 -107.27795734 28.89763346 -104.75 28.8125 C-102.23680372 28.71118874 -99.72389122 28.60458155 -97.21099854 28.49601746 C-95.65176863 28.43046972 -94.09231416 28.36997883 -92.53265381 28.31562805 C-87.99362776 28.14599706 -83.52669933 27.75465626 -79.01617432 27.22215271 C-76.6237238 26.95853991 -74.24963233 26.84355983 -71.84375 26.7890625 C-70.96589844 26.76070313 -70.08804688 26.73234375 -69.18359375 26.703125 C-67.39474146 26.65104779 -65.60564493 26.60677442 -63.81640625 26.5703125 C-51.93306914 26.15151648 -43.26436269 21.15494742 -33.1875 15.25 C-31.98155382 14.55133364 -30.77517545 13.85341271 -29.56835938 13.15625 C-24.88870433 10.44774655 -20.21676379 7.72892963 -15.57836914 4.95019531 C-14.51610107 4.31694336 -13.45383301 3.68369141 -12.359375 3.03125 C-11.41932617 2.46470703 -10.47927734 1.89816406 -9.51074219 1.31445312 C-5.8519854 -0.60102203 -4.02167807 -0.98490075 0 0 Z " fill="#EDE0DC" transform="translate(430,246)"/>
<path d="M0 0 C48.18 0 96.36 0 146 0 C146 54.45 146 108.9 146 165 C142.37 165 138.74 165 135 165 C135 110.88 135 56.76 135 1 C90.45 1 45.9 1 0 1 C0 0.67 0 0.34 0 0 Z " fill="#7885BD" transform="translate(183,329)"/>
<path d="M0 0 C0.72407043 -0.00700928 1.44814087 -0.01401855 2.19415283 -0.02124023 C4.58368476 -0.03882113 6.97202864 -0.02719697 9.36157227 -0.01367188 C11.02539802 -0.01636708 12.68922224 -0.02024974 14.3530426 -0.02526855 C17.83919275 -0.03116394 21.32493272 -0.02260076 24.81103516 -0.00390625 C29.27459397 0.01886597 33.7371898 0.00577203 38.20071316 -0.01819611 C41.63661418 -0.03266835 45.07228791 -0.02804133 48.50819588 -0.01768494 C50.15359677 -0.01502065 51.79901845 -0.01827693 53.44439507 -0.02760315 C55.74733783 -0.03779075 58.04873456 -0.02223843 60.3515625 0 C62.3153611 0.00477356 62.3153611 0.00477356 64.3188324 0.00964355 C68.30321607 0.60111507 70.00852402 1.58734764 72.74047852 4.51757812 C72.80507974 8.19984809 72.73169517 10.47845416 70.12878418 13.20716858 C66.81679451 15.02438274 64.23525458 14.90609796 60.46508789 14.92163086 C59.3765728 14.93192574 59.3765728 14.93192574 58.2660675 14.94242859 C55.87192109 14.9607015 53.47842957 14.95685904 51.08422852 14.95117188 C49.41800727 14.95573309 47.75178791 14.96103849 46.08557129 14.96705627 C42.5952998 14.97598803 39.10525712 14.97356316 35.61499023 14.96362305 C31.14240021 14.95212643 26.67059889 14.97235457 22.19811249 15.00154018 C18.75798529 15.01988527 15.31804775 15.01961326 11.87788391 15.01390266 C10.22885531 15.01374928 8.579814 15.01980802 6.93083191 15.03219414 C4.62534052 15.04707312 2.32131466 15.03645217 0.01586914 15.01928711 C-1.29555054 15.01912094 -2.60697021 15.01895477 -3.95812988 15.01878357 C-7.25952148 14.51757812 -7.25952148 14.51757812 -9.6829834 12.67372131 C-11.25952148 10.51757812 -11.25952148 10.51757812 -11.75952148 7.51757812 C-10.61755365 0.66577114 -6.25565933 0.01521537 0 0 Z " fill="#020201" transform="translate(403.259521484375,80.482421875)"/>
<path d="M0 0 C0.71446289 -0.00861557 1.42892578 -0.01723114 2.16503906 -0.02610779 C4.51664905 -0.04873156 6.86706395 -0.04203681 9.21875 -0.03295898 C10.85872755 -0.03819591 12.49870208 -0.04447264 14.13867188 -0.05174255 C17.57175902 -0.06213983 21.00443148 -0.05759478 24.4375 -0.04296875 C28.83280015 -0.02577417 33.22679384 -0.04928672 37.62194824 -0.08445835 C41.00724925 -0.10643777 44.39223781 -0.1049898 47.77758789 -0.09669304 C49.39788242 -0.09587395 51.01819999 -0.10272936 52.63842773 -0.11746407 C54.90559812 -0.13492343 57.17042319 -0.12036089 59.4375 -0.09765625 C60.72591797 -0.09669449 62.01433594 -0.09573273 63.34179688 -0.09474182 C67.58627161 0.69482576 69.06910612 2.1951331 71.71875 5.53344727 C72.28125 8.09594727 72.28125 8.09594727 71.71875 10.53344727 C69.42303712 13.62411746 68.23319936 14.45519665 64.37939453 15.04138184 C63.03698899 15.0650701 61.69408459 15.06677966 60.3515625 15.05102539 C59.6161322 15.05803467 58.8807019 15.06504395 58.12298584 15.07226562 C55.69618783 15.08984608 53.27055951 15.07822366 50.84375 15.06469727 C49.1551084 15.06739219 47.46646832 15.07127461 45.77783203 15.07629395 C42.24040946 15.08218903 38.70339117 15.073626 35.16601562 15.05493164 C30.63286155 15.03214175 26.10065473 15.04526482 21.5675354 15.0692215 C18.08106353 15.0836794 14.59481605 15.0790736 11.1083374 15.06871033 C9.43699023 15.066043 7.76562265 15.06931303 6.09429932 15.07862854 C3.75763025 15.08879446 1.42249256 15.07329475 -0.9140625 15.05102539 C-1.60405334 15.05912231 -2.29404419 15.06721924 -3.00494385 15.07556152 C-6.32433135 15.01698717 -8.03358149 14.72184138 -10.70654297 12.68859863 C-12.28125 10.53344727 -12.28125 10.53344727 -12.84375 7.53344727 C-12.28125 4.53344727 -12.28125 4.53344727 -10.20117188 2.37928772 C-6.54936527 0.07078337 -4.30357101 0.02070448 0 0 Z " fill="#040402" transform="translate(404.28125,55.466552734375)"/>
<path d="M0 0 C0.71431686 -0.00846954 1.42863373 -0.01693909 2.16459656 -0.02566528 C4.5214528 -0.04902835 6.87765595 -0.05005768 9.23461914 -0.04882812 C10.87602499 -0.05593009 12.51742836 -0.06362914 14.15882874 -0.07189941 C17.59781802 -0.08534255 21.03657774 -0.08691378 24.47558594 -0.08105469 C28.87871637 -0.07515823 33.28074429 -0.10574753 37.68366146 -0.14617157 C41.07322607 -0.17204397 44.46252502 -0.17492646 47.85217476 -0.17127991 C49.47527399 -0.17297157 51.09838542 -0.18261862 52.72138786 -0.20042419 C54.99339069 -0.22260729 57.26315988 -0.21291881 59.53515625 -0.1953125 C60.82659042 -0.19736694 62.1180246 -0.19942139 63.44859314 -0.20153809 C67.70167291 0.57959873 69.17999124 2.07542183 71.83227539 5.41992188 C72.39477539 7.98242188 72.39477539 7.98242188 71.83227539 10.41992188 C69.53656251 13.51059207 68.34672475 14.34167126 64.49291992 14.92785645 C63.15051438 14.95154471 61.80760998 14.95325427 60.46508789 14.9375 C59.72965759 14.94450928 58.99422729 14.95151855 58.23651123 14.95874023 C55.80971322 14.97632069 53.3840849 14.96469827 50.95727539 14.95117188 C49.26863379 14.9538668 47.57999371 14.95774922 45.89135742 14.96276855 C42.35393485 14.96866364 38.81691656 14.96010061 35.27954102 14.94140625 C30.74638694 14.91861636 26.21418012 14.93173943 21.68106079 14.95569611 C18.19458892 14.97015401 14.70834144 14.9655482 11.22186279 14.95518494 C9.55051562 14.95251761 7.87914804 14.95578764 6.20782471 14.96510315 C3.87115564 14.97526907 1.53601795 14.95976936 -0.80053711 14.9375 C-1.49052795 14.94559692 -2.1805188 14.95369385 -2.89141846 14.96203613 C-6.19511214 14.90373872 -7.93807385 14.58883299 -10.62817383 12.61022949 C-12.16772461 10.41992188 -12.16772461 10.41992188 -12.16772461 6.85742188 C-10.24389665 0.24426327 -6.40120351 0.04175681 0 0 Z " fill="#050503" transform="translate(404.167724609375,30.580078125)"/>
<path d="M0 0 C8.37510838 3.47260591 13.10854158 9.28436808 16.96956444 17.28705978 C18.6077849 21.60018166 18.66092063 25.5621525 18.56762695 30.13134766 C18.56835709 31.08865784 18.56908722 32.04596802 18.56983948 33.0322876 C18.56638817 36.16014585 18.52764385 39.28646817 18.48828125 42.4140625 C18.47894438 44.59694607 18.4718324 46.7798402 18.46684265 48.96273804 C18.44784181 54.68069893 18.39880051 60.39801486 18.34332275 66.11572266 C18.29198087 71.9611743 18.26929677 77.80673115 18.24414062 83.65234375 C18.19067515 95.10184434 18.10544636 106.55086833 18 118 C15.69 118 13.38 118 11 118 C10.99857498 116.79889587 10.99714996 115.59779175 10.99568176 114.36029053 C10.97896254 103.00298079 10.93603864 91.6460271 10.86790943 80.2889061 C10.83371901 74.45101605 10.80854178 68.61338551 10.80444336 62.77539062 C10.80014343 57.1341258 10.77153995 51.49344559 10.72656822 45.85236359 C10.71364735 43.70759749 10.70926619 41.56276124 10.71384621 39.41796112 C10.73773558 24.82466822 10.34995305 13.23709189 0 2 C0 1.34 0 0.68 0 0 Z " fill="#4EB0FA" transform="translate(441,225)"/>
<path d="M0 0 C18.80600871 13.06684529 31.60409342 32.90700254 36.51171875 55.27734375 C37.27328061 59.52381267 37.78614719 63.69054177 38 68 C38.05285156 68.95003906 38.10570312 69.90007812 38.16015625 70.87890625 C38.83871277 94.45136985 30.87026711 117.41871972 15 135 C10.42929934 139.76330089 5.72698578 144.39251667 1 149 C0.34 148.67 -0.32 148.34 -1 148 C-0.59910156 147.63390625 -0.19820313 147.2678125 0.21484375 146.890625 C17.86777714 130.07830749 30.396946 105.54404048 31.3359375 80.93359375 C31.70679872 54.120942 25.40356268 29.48834126 7 9 C5.11787617 7.08222989 3.2189667 5.20332622 1.25 3.375 C0 2 0 2 0 0 Z " fill="#42E642" transform="translate(291,36)"/>
<path d="M0 0 C3.63 0 7.26 0 11 0 C11 19.14 11 38.28 11 58 C7.37 58 3.74 58 0 58 C0 38.86 0 19.72 0 0 Z " fill="#7FC2F4" transform="translate(186,95)"/>
<path d="M0 0 C7.84919962 -0.23212517 15.69759016 -0.40958585 23.54936409 -0.51812172 C27.19592962 -0.57022912 30.84014124 -0.6408302 34.48535156 -0.75439453 C38.00634539 -0.86339714 41.52508299 -0.92290474 45.04763412 -0.94877243 C47.03911668 -0.97613389 49.02969525 -1.05415537 51.01980591 -1.13296509 C54.61489328 -1.13518935 57.55908764 -1.04844016 61 0 C63.26028943 2.37342215 64.50829967 4.53035734 65.83312988 7.51838684 C67.71979145 11.53079928 70.89008894 13.71004164 74.375 16.3125 C75.78919725 17.41779636 77.2032556 18.52327047 78.6171875 19.62890625 C79.33874023 20.18336426 80.06029297 20.73782227 80.80371094 21.30908203 C106.71624374 41.25908228 106.71624374 41.25908228 109.99438477 53.43432617 C110.95426964 57.00901475 110.95426964 57.00901475 112.25976562 60.44897461 C117.32874431 74.92940181 116.58379991 89.85837644 116.34332275 104.97680664 C116.29136983 108.59766801 116.26916971 112.21871393 116.24414062 115.83984375 C116.19116268 122.89366757 116.10629173 129.94676061 116 137 C115.67 137 115.34 137 115 137 C114.9906543 135.83130371 114.98130859 134.66260742 114.97167969 133.45849609 C114.93132449 129.05594982 114.86544788 124.65406949 114.79248047 120.25195312 C114.76453156 118.35913756 114.74318963 116.46621093 114.72900391 114.57324219 C114.63686207 102.96337123 113.85239485 93.03513968 110 82 C109.54999603 80.44664158 109.11200398 78.88970225 108.69140625 77.328125 C108.50457275 76.65330078 108.31773926 75.97847656 108.12524414 75.28320312 C107.93953857 74.61224609 107.75383301 73.94128906 107.5625 73.25 C107.25010376 72.1352832 107.25010376 72.1352832 106.93139648 70.99804688 C105.83544584 67.07682355 104.77706461 63.15104807 103.78125 59.203125 C98.78920317 39.68528747 88.64665171 30.31038859 73 18 C70.15755561 15.7612481 67.32642134 13.50893752 64.5 11.25 C63.43906128 10.41698364 63.43906128 10.41698364 62.35668945 9.56713867 C61.69241943 9.03451416 61.02814941 8.50188965 60.34375 7.953125 C59.74755859 7.48036133 59.15136719 7.00759766 58.53710938 6.52050781 C57 5 57 5 55 1 C36.85 1 18.7 1 0 1 C0 0.67 0 0.34 0 0 Z " fill="#635A63" transform="translate(53,357)"/>
<path d="M0 0 C0.99 0.33 1.98 0.66 3 1 C2.27554688 2.05316406 1.55109375 3.10632813 0.8046875 4.19140625 C-2.66754924 9.76769662 -4.70028499 15.76595559 -6.875 21.9375 C-7.33402971 23.21797413 -7.79410248 24.49807474 -8.25512695 25.77783203 C-9.27046914 28.59819144 -10.28147355 31.42006098 -11.29052734 34.24267578 C-14.20265628 42.36846529 -17.18816276 50.46770889 -20.15997314 58.57180786 C-21.81087881 63.07563738 -23.4581221 67.58080527 -25.10546875 72.0859375 C-25.66950408 73.62809643 -26.23354915 75.1702518 -26.79760742 76.71240234 C-27.19439697 77.79730957 -27.59118652 78.8822168 -28 80 C-30.97 80.495 -30.97 80.495 -34 81 C-34 60.54 -34 40.08 -34 19 C-33.67 19 -33.34 19 -33 19 C-32.67 35.83 -32.34 52.66 -32 70 C-30.783125 66.596875 -29.56625 63.19375 -28.3125 59.6875 C-27.26786228 56.79709168 -26.22031325 53.90776285 -25.17185974 51.01873779 C-23.62460786 46.74692538 -22.10187775 42.46695275 -20.58885193 38.1829071 C-19.47437158 35.03975846 -18.34402352 31.9024496 -17.21078491 28.76602173 C-16.65795644 27.2258251 -16.11147758 25.68333313 -15.57168579 24.13851929 C-12.15697228 14.3818743 -8.92841425 5.95227616 0 0 Z " fill="#665C66" transform="translate(377,413)"/>
<path d="M0 0 C9.48713055 2.30589979 15.30398542 6.90054074 20.4375 15.1875 C24.9201681 22.94361511 25.40309121 31.5646607 23.1640625 40.23828125 C20.16539264 48.15758723 15.97339922 54.50265831 8.26171875 58.375 C5.86141009 59.35277778 3.47370914 60.22950043 1 61 C1 60.34 1 59.68 1 59 C1.66 59 2.32 59 3 59 C3.41958984 58.12214844 3.41958984 58.12214844 3.84765625 57.2265625 C4.92259959 55.14955333 6.12032324 53.30357656 7.4375 51.375 C13.41280875 41.79329188 14.25771673 31.38015861 12.375 20.375 C10.37494902 12.55919793 5.3001728 5.92372254 0 0 Z " fill="#D4C1BB" transform="translate(88,147)"/>
<path d="M0 0 C7.59372534 1.72339866 12.89700724 5.10584557 18 11 C23.65412949 20.10045604 25.677476 29.08866051 23.421875 39.7265625 C20.51095522 48.06237823 14.44741725 55.54609927 6.5625 59.625 C3 61 3 61 1 61 C2.32817738 58.12228235 3.85048431 55.86586985 5.875 53.4375 C12.82561174 44.17001768 14.19385591 34.39035991 13 23 C11.32245478 15.46989534 7.89111525 9.85629533 3 4 C1.99366043 2.67144498 0.99197552 1.33931413 0 0 Z " fill="#D3C0BA" transform="translate(434,147)"/>
<path d="M0 0 C3.465 1.98 3.465 1.98 7 4 C7 19.51 7 35.02 7 51 C4.69 51 2.38 51 0 51 C0 34.17 0 17.34 0 0 Z " fill="#4FB1FB" transform="translate(106,292)"/>
<path d="M0 0 C66.33 0 132.66 0 201 0 C201 3.96 201 7.92 201 12 C198.36 12 195.72 12 193 12 C193 8.37 193 4.74 193 1 C129.64 1 66.28 1 1 1 C1 4.63 1 8.26 1 12 C0.67 12 0.34 12 0 12 C0 8.04 0 4.08 0 0 Z " fill="#49517C" transform="translate(155,303)"/>
<path d="M0 0 C2.31 0 4.62 0 7 0 C7.116965 4.33310328 7.1875089 8.6657958 7.25 13 C7.30027344 14.83111328 7.30027344 14.83111328 7.3515625 16.69921875 C7.45608845 26.36786887 5.81305221 32.78618001 -1 40 C-4.0625 42.375 -4.0625 42.375 -7 44 C-7.99 43.67 -8.98 43.34 -10 43 C-9.60167969 42.5153125 -9.20335937 42.030625 -8.79296875 41.53125 C-8.26316406 40.8609375 -7.73335938 40.190625 -7.1875 39.5 C-6.40439453 38.52546875 -6.40439453 38.52546875 -5.60546875 37.53125 C-0.59347325 29.6291257 -0.48154194 22.14758408 -0.3125 13 C-0.27833984 11.74832031 -0.24417969 10.49664062 -0.20898438 9.20703125 C-0.12699031 6.13811043 -0.05767981 3.06945794 0 0 Z " fill="#665C66" transform="translate(452,358)"/>
<path d="M0 0 C0.66 0.33 1.32 0.66 2 1 C1.484375 1.37125 0.96875 1.7425 0.4375 2.125 C-1.29787794 3.9947644 -1.29787794 3.9947644 -1 6.9375 C0.76155963 12.33227636 5.76653528 14.58043072 10.5078125 17.28515625 C11.56838867 17.89335205 12.62896484 18.50154785 13.72167969 19.12817383 C14.84477539 19.76650146 15.96787109 20.4048291 17.125 21.0625 C18.8786626 22.06405273 20.63165929 23.06676437 22.38464355 24.06950378 C23.56052366 24.74192792 24.73671207 25.41381322 25.91320801 26.0851593 C29.53236031 28.15210965 33.13539299 30.24422081 36.7265625 32.359375 C37.58233887 32.86202881 38.43811523 33.36468262 39.31982422 33.88256836 C40.89420046 34.80894184 42.46629815 35.73920314 44.03564453 36.67407227 C47.94155544 38.96271286 51.61121126 40.75098937 56 42 C56 42.33 56 42.66 56 43 C49.08354826 43.59515752 44.80832329 42.47240563 38.9375 38.875 C38.18871582 38.43704102 37.43993164 37.99908203 36.66845703 37.54785156 C35.01542005 36.57909501 33.36718356 35.60211333 31.72314453 34.61816406 C28.75885012 32.8567024 25.77100088 31.14074234 22.77734375 29.4296875 C20.64279472 28.2038812 18.50867585 26.97732554 16.375 25.75 C15.36816162 25.17233887 14.36132324 24.59467773 13.32397461 23.99951172 C0.58629467 16.58629467 0.58629467 16.58629467 -4 12 C-4.59479554 4.74349442 -4.59479554 4.74349442 -2 1.5 C-1.34 1.005 -0.68 0.51 0 0 Z " fill="#D0BDB8" transform="translate(81,246)"/>
<path d="M0 0 C0.33 0 0.66 0 1 0 C1.4375 3.125 1.4375 3.125 1 7 C-4.50803852 12.57756496 -11.02743166 16.03956381 -17.875 19.75 C-20.10502643 20.9763024 -22.33418977 22.20417561 -24.5625 23.43359375 C-25.65304687 24.03413574 -26.74359375 24.63467773 -27.8671875 25.25341797 C-32.95772724 28.09145734 -37.96693426 31.062622 -42.96044922 34.06738281 C-47.3835135 36.71102738 -50.53208181 38.13721621 -55.6875 38.0625 C-56.89986328 38.04896484 -56.89986328 38.04896484 -58.13671875 38.03515625 C-58.75160156 38.02355469 -59.36648438 38.01195312 -60 38 C-57.60683675 36.40455784 -55.66811502 35.373089 -53.05859375 34.28515625 C-47.18123797 31.71373893 -41.64309052 28.59195244 -36.0625 25.4375 C-34.97163086 24.82124756 -33.88076172 24.20499512 -32.75683594 23.57006836 C-29.49974712 21.72166329 -26.24891338 19.86273055 -23 18 C-22.06591309 17.46793945 -21.13182617 16.93587891 -20.16943359 16.38769531 C-17.68504654 14.96421866 -15.21525322 13.51880388 -12.75 12.0625 C-12.03078369 11.6512085 -11.31156738 11.23991699 -10.57055664 10.81616211 C-5.69591063 7.88102419 -3.10704999 4.75986041 0 0 Z " fill="#D2BFB9" transform="translate(434,251)"/>
<path d="M0 0 C7.84919962 -0.23212517 15.69759016 -0.40958585 23.54936409 -0.51812172 C27.19592962 -0.57022912 30.84014124 -0.6408302 34.48535156 -0.75439453 C38.00634539 -0.86339714 41.52508299 -0.92290474 45.04763412 -0.94877243 C47.03911668 -0.97613389 49.02969525 -1.05415537 51.01980591 -1.13296509 C54.61449221 -1.1351891 57.55933553 -1.04784599 61 0 C63.25371158 2.36827036 64.49542322 4.51879157 65.81253052 7.5012207 C67.77672169 11.63444712 71.15642785 13.93197221 74.75 16.625 C75.44867188 17.16987061 76.14734375 17.71474121 76.8671875 18.27612305 C78.25736735 19.35931553 79.65242558 20.43628166 81.05273438 21.50634766 C83.73739166 23.56561712 86.36716726 25.68742786 89 27.8125 C90.33279897 28.87567023 91.66588551 29.93848102 93 31 C92.67 31.99 92.34 32.98 92 34 C90.72769531 32.89205078 90.72769531 32.89205078 89.4296875 31.76171875 C83.29098457 26.44368858 77.10652856 21.22766166 70.6875 16.25 C58.79088863 7.00149355 58.79088863 7.00149355 55 3 C55 2.34 55 1.68 55 1 C36.85 1 18.7 1 0 1 C0 0.67 0 0.34 0 0 Z " fill="#534B53" transform="translate(53,357)"/>
<path d="M0 0 C3.875 1.875 3.875 1.875 5 3 C6.4776635 18.93938661 4.17815472 40.00228063 -4 54 C-5.485 54.495 -5.485 54.495 -7 55 C-6.82984375 54.47535156 -6.6596875 53.95070312 -6.484375 53.41015625 C1.8878302 26.97120434 1.8878302 26.97120434 0 0 Z " fill="#CFBCB7" transform="translate(282,95)"/>
<path d="M0 0 C3.79218873 3.16015728 5.15318379 6.24285372 6 11 C6.25223395 14.65062334 6.23442477 18.27983734 6.1875 21.9375 C6.18685547 22.88818359 6.18621094 23.83886719 6.18554688 24.81835938 C6.15155914 30.29793768 5.800017 35.57908483 5 41 C4.01 40.67 3.02 40.34 2 40 C2.01047363 39.1435791 2.02094727 38.2871582 2.03173828 37.40478516 C2.06613634 34.1805117 2.09105115 30.95633282 2.10986328 27.73193359 C2.11982603 26.34518324 2.13340118 24.95845335 2.15087891 23.57177734 C2.24983708 15.50959656 2.07347869 7.84275197 0 0 Z " fill="#D1BEB8" transform="translate(245,47)"/>
<path d="M0 0 C2.64 0 5.28 0 8 0 C8 3.96 8 7.92 8 12 C5.36 12 2.72 12 0 12 C0 8.04 0 4.08 0 0 Z " fill="#3C4974" transform="translate(348,303)"/>
<path d="M0 0 C8.70804407 4.05025306 12.41701731 8.74748134 17 17 C16.34 17.33 15.68 17.66 15 18 C12.87109375 17.1796875 12.87109375 17.1796875 10.4375 15.875 C9.63183594 15.45992187 8.82617188 15.04484375 7.99609375 14.6171875 C5.43610132 12.54314275 5.48366004 11.18327274 5 8 C3.85946398 6.24988466 3.85946398 6.24988466 2.4375 4.8125 C0 2 0 2 0 0 Z " fill="#4AA5EA" transform="translate(95,225)"/>
<path d="M0 0 C1.29315061 0.95632999 2.58446853 1.91513851 3.875 2.875 C4.59429687 3.40867188 5.31359375 3.94234375 6.0546875 4.4921875 C8 6 8 6 10 8 C9.67 8.99 9.34 9.98 9 11 C7.49403892 9.54782324 5.99537896 8.08807139 4.5 6.625 C3.6646875 5.81289063 2.829375 5.00078125 1.96875 4.1640625 C0 2 0 2 0 0 Z " fill="#4BE14B" transform="translate(291,36)"/>
</svg>
